<svg width="82" height="13" viewBox="0 0 82 13" fill="none" xmlns="http://www.w3.org/2000/svg">
<path d="M80 3H81C81.5523 3 82 3.44772 82 4V9C82 9.55228 81.5523 10 81 10H80V3Z" fill="#D9D9D9"/>
<path d="M5.88 3H7.5V10H5.88V7.31H2.12V10H0.5V3H2.12V5.69H5.88V3ZM8.49805 3H15.498V7.31H10.118V10H8.49805V3ZM13.878 5.69V4.62H10.108V5.69H13.878Z" fill="#D9D9D9"/>
<rect x="18.5" y="0.5" width="61" height="12" rx="1.5" stroke="#D9D9D9"/>
<path fill-rule="evenodd" clip-rule="evenodd" d="M24.8571 2.40928C24.8572 2.31935 24.8262 2.23192 24.7689 2.1605C24.7117 2.08908 24.6314 2.03765 24.5404 2.01418C24.4495 1.99071 24.353 1.9965 24.2658 2.03065C24.1787 2.0648 24.1057 2.12541 24.0583 2.20311L21.0584 7.11197C21.0204 7.17414 21.0003 7.24478 21 7.31676C20.9997 7.38873 21.0194 7.4595 21.057 7.52191C21.0945 7.58433 21.1487 7.63617 21.2139 7.67222C21.2792 7.70827 21.3533 7.72724 21.4287 7.72722H23.1429V10.5907C23.1428 10.6806 23.1738 10.7681 23.2311 10.8395C23.2883 10.9109 23.3686 10.9623 23.4596 10.9858C23.5505 11.0093 23.647 11.0035 23.7342 10.9694C23.8213 10.9352 23.8943 10.8746 23.9417 10.7969L26.9416 5.88803C26.9796 5.82586 26.9997 5.75522 27 5.68324C27.0003 5.61127 26.9806 5.5405 26.943 5.47809C26.9055 5.41568 26.8513 5.36383 26.7861 5.32778C26.7208 5.29173 26.6467 5.27276 26.5713 5.27278H24.8571V2.40928Z" fill="#D9D9D9"/>
<rect x="32" y="2.5" width="8" height="3" rx="1" transform="rotate(90 32 2.5)" fill="#A50B0B"/>
</svg>
